<?xml version="1.0" standalone="no"?>
<!DOCTYPE svg PUBLIC "-//W3C//DTD SVG 20010904//EN"
 "http://www.w3.org/TR/2001/REC-SVG-20010904/DTD/svg10.dtd">
<svg version="1.0" xmlns="http://www.w3.org/2000/svg"
 width="2339.000000pt" height="1654.000000pt" viewBox="0 0 2339.000000 1654.000000"
 preserveAspectRatio="xMidYMid meet">

<g transform="translate(0.000000,1654.000000) scale(0.100000,-0.100000)"
fill="#000000" stroke="none">
<path d="M9497 13593 l-1077 -648 0 -1200 1 -1200 849 -529 850 -530 0 -1016
0 -1017 178 -95 c1487 -800 1975 -1059 1986 -1056 8 2 496 296 1085 653 l1071
650 0 941 0 941 848 516 847 515 0 1298 0 1299 -120 63 c-416 219 -1976 1033
-2006 1047 l-35 17 -764 -467 c-421 -257 -770 -469 -776 -472 -7 -2 -425 207
-929 466 -504 259 -920 471 -924 471 -4 0 -491 -291 -1084 -647z m1928 -88
c374 -196 684 -360 688 -365 9 -7 -32 -100 -44 -100 -7 0 -1527 795 -1535 803
-3 3 6 28 20 56 l26 51 83 -44 c45 -24 388 -205 762 -401z m3530 -92 c506
-261 930 -482 943 -490 l22 -14 -2 -1135 -3 -1136 -865 -527 -865 -526 -5
-945 -5 -945 -885 -532 c-487 -293 -888 -532 -892 -533 -9 0 -58 75 -58 89 0
5 387 242 860 527 l860 517 0 942 0 942 870 529 870 529 0 1070 -1 1070 -696
360 c-383 198 -799 413 -925 478 l-228 118 26 50 c19 39 29 49 42 44 9 -3 431
-220 937 -482z m-4542 -69 c16 -26 24 -51 20 -55 -5 -5 -317 -199 -693 -432
l-685 -423 -2 -765 -3 -764 78 -41 c190 -102 1376 -745 1380 -749 2 -2 -9 -26
-24 -53 l-29 -50 -335 182 c-184 100 -525 285 -758 411 l-422 228 2 835 3 836
715 442 c393 244 717 443 720 443 3 1 18 -20 33 -45z m3490 0 c16 -27 24 -51
19 -56 -4 -4 -316 -199 -693 -431 l-684 -423 -3 -762 -2 -761 22 -15 c13 -8
340 -186 727 -395 388 -210 707 -383 709 -386 2 -2 -9 -26 -24 -53 l-29 -49
-758 410 -757 411 2 834 3 835 715 443 c393 243 717 443 720 443 3 1 18 -20
33 -45z m-2568 -577 l460 -245 0 -787 0 -787 -594 -359 -594 -359 -31 19 c-17
10 -182 99 -366 197 -184 98 -479 255 -655 349 l-320 171 -3 686 -2 686 682
411 682 411 140 -75 c78 -40 348 -184 601 -318z m3351 52 l604 -321 -2 -775
-3 -775 -593 -358 -593 -358 -82 43 c-45 24 -354 190 -687 368 l-605 323 -3
692 -2 693 37 22 c307 185 1302 766 1312 766 7 1 285 -144 617 -320z m-2563
-2425 c16 -26 24 -51 20 -55 -5 -5 -317 -199 -693 -432 l-685 -423 -2 -765 -3
-764 88 -47 c198 -105 1366 -738 1369 -742 3 -2 -8 -26 -24 -53 l-28 -50 -758
410 -757 410 2 835 3 835 715 443 c393 244 717 443 720 444 3 0 18 -21 33 -46z
m790 -519 l597 -327 -2 -765 -3 -766 -593 -367 -593 -367 -687 366 -687 367
-2 694 -3 695 682 402 c375 221 684 401 687 399 3 -2 275 -150 604 -331z"/>
<path d="M5072 5929 l23 -31 0 -623 0 -623 -24 -26 -24 -26 182 0 182 0 -23
31 c-22 30 -23 37 -26 316 l-3 285 48 -7 c122 -17 174 -62 286 -244 155 -249
250 -363 321 -382 41 -11 250 -6 309 7 28 7 28 7 -25 36 -82 45 -149 119 -276
303 -124 181 -238 308 -307 340 -22 10 -64 23 -94 29 l-53 11 197 215 c109
118 243 261 298 318 l102 102 -131 0 -131 0 4 -24 c4 -18 -6 -36 -38 -72 -69
-76 -438 -475 -476 -514 l-34 -35 3 290 c3 285 3 291 26 323 l23 32 -181 0
-181 0 23 -31z"/>
<path d="M12590 5927 c15 -25 18 -40 11 -63 -11 -39 -447 -1138 -468 -1178 -8
-17 -27 -43 -41 -58 l-26 -28 119 0 c93 0 116 3 107 12 -7 7 -12 20 -12 31 0
23 138 367 154 384 11 11 180 18 412 14 l112 -1 82 -191 c62 -146 81 -199 76
-220 l-5 -29 165 0 165 0 -21 23 c-35 36 -51 71 -320 717 l-257 615 -136 3
-137 3 20 -34z m213 -512 l104 -250 -36 -7 c-20 -4 -99 -7 -176 -7 -77 0 -156
3 -177 7 l-36 7 101 257 c56 142 105 254 109 250 4 -4 54 -119 111 -257z"/>
<path d="M18380 5489 c-78 -13 -192 -72 -248 -128 -185 -185 -189 -523 -8
-689 61 -55 119 -85 209 -109 78 -20 244 -13 332 14 58 18 60 20 77 68 9 28
17 69 18 93 l0 43 -47 -48 c-82 -84 -174 -115 -276 -94 -180 38 -289 244 -257
482 15 109 41 168 99 222 60 56 106 72 206 71 91 -1 149 -21 210 -75 l38 -34
-7 75 c-4 41 -10 78 -12 81 -15 24 -246 44 -334 28z"/>
<path d="M8432 5474 c-10 -5 -4 -16 21 -43 19 -20 94 -124 167 -231 l131 -195
-3 -196 c-2 -148 -6 -200 -17 -212 -12 -16 -5 -17 98 -17 108 0 123 4 100 27
-7 7 -11 79 -11 209 l-1 199 118 198 c65 110 132 212 147 228 l30 29 -79 0
c-74 0 -78 -1 -78 -22 0 -22 -174 -327 -186 -328 -3 0 -53 71 -112 159 -58 87
-119 166 -134 176 -28 19 -162 32 -191 19z"/>
<path d="M6586 5443 c22 -43 21 -809 -2 -841 l-15 -22 309 0 310 0 6 31 c11
57 8 82 -10 75 -54 -21 -116 -27 -254 -24 l-155 3 -3 173 -2 172 139 0 c77 0
151 -4 165 -10 23 -8 26 -7 25 13 -1 12 -4 35 -8 50 l-6 29 -157 -1 -158 -2 0
151 0 152 196 -4 196 -3 -6 29 c-3 16 -6 35 -6 42 0 12 -51 14 -289 14 l-290
0 15 -27z"/>
<path d="M7436 5443 c22 -43 21 -809 -2 -841 l-15 -22 75 0 c74 0 87 5 66 26
-7 7 -9 124 -8 332 l3 322 285 -340 c277 -332 285 -340 320 -340 l37 0 0 425
c0 395 1 427 18 445 18 20 17 20 -63 20 -45 0 -82 -3 -82 -7 0 -5 7 -17 15
-27 12 -16 15 -69 15 -298 0 -153 -3 -278 -7 -277 -5 0 -122 137 -262 305
l-253 304 -78 0 -79 0 15 -27z"/>
<path d="M9595 5446 c16 -24 12 -36 -140 -418 -85 -216 -165 -405 -176 -420
l-20 -28 70 0 c56 0 69 3 65 14 -5 14 79 240 98 264 8 9 56 12 178 12 l168 0
51 -121 c28 -67 51 -132 51 -145 0 -24 1 -24 105 -24 l106 0 -21 28 c-12 16
-99 215 -195 443 l-174 414 -91 3 -91 3 16 -25z m139 -328 c36 -90 66 -166 66
-170 0 -5 -61 -8 -136 -8 -135 0 -136 0 -131 22 12 43 122 318 128 318 4 0 36
-73 73 -162z"/>
<path d="M10355 5440 c22 -42 22 -790 1 -832 l-15 -28 75 0 c71 0 74 1 64 20
-7 12 -9 130 -8 338 l3 320 284 -339 c268 -320 286 -339 317 -339 l33 0 3 424
c3 401 4 425 22 445 l19 21 -81 0 c-45 0 -82 -2 -82 -4 0 -2 7 -17 15 -32 12
-24 15 -79 15 -301 0 -150 -3 -273 -7 -273 -5 1 -122 138 -262 305 l-254 305
-79 0 -79 0 16 -30z"/>
<path d="M13736 5443 c22 -43 21 -809 -2 -841 l-15 -22 315 0 314 0 7 43 c3
23 9 49 11 58 4 16 1 16 -38 1 -31 -11 -94 -17 -225 -20 l-183 -4 0 384 c0
331 2 387 16 406 l15 22 -115 0 -115 0 15 -27z"/>
<path d="M14594 5448 c14 -19 16 -77 16 -430 0 -260 -4 -409 -10 -413 -35 -22
13 -25 302 -23 l313 3 8 49 c4 27 6 50 4 52 -2 2 -36 -3 -76 -11 -50 -11 -117
-15 -219 -13 l-147 3 -3 373 c-2 319 0 377 13 402 l16 30 -116 0 -116 0 15
-22z"/>
<path d="M15465 5440 c22 -42 22 -790 1 -832 l-15 -28 110 0 c99 0 128 7 99
25 -6 4 -10 153 -10 413 0 353 2 411 16 430 l15 22 -116 0 -116 0 16 -30z"/>
<path d="M16198 5458 c7 -7 12 -22 12 -35 0 -25 -290 -758 -320 -810 l-19 -33
64 0 c61 0 65 1 65 23 0 13 22 77 48 143 l48 119 174 0 174 0 52 -120 c29 -66
53 -130 53 -142 1 -22 4 -23 100 -23 l99 0 -33 63 c-17 34 -103 234 -191 445
l-159 382 -89 0 c-70 0 -87 -3 -78 -12z m147 -353 c36 -85 65 -157 65 -160 0
-3 -63 -5 -141 -5 -130 0 -141 1 -135 18 60 164 132 328 139 317 4 -8 37 -84
72 -170z"/>
<path d="M16953 5452 c15 -17 17 -61 17 -426 0 -262 -4 -414 -10 -427 -10 -18
-7 -19 64 -19 l74 0 -14 29 c-12 23 -14 86 -12 342 l3 314 285 -342 c280 -336
286 -342 323 -342 l37 -1 0 418 c0 343 3 422 14 445 l15 27 -80 0 -79 0 15
-23 c13 -20 15 -66 13 -306 l-3 -282 -255 305 -255 305 -84 0 c-81 1 -83 0
-68 -17z"/>
<path d="M18994 5448 c14 -19 16 -77 16 -426 0 -259 -4 -410 -10 -423 -10 -19
-4 -19 295 -19 236 0 307 3 309 13 3 6 7 33 10 58 l5 46 -52 -18 c-41 -15 -84
-18 -204 -19 -83 0 -158 3 -167 6 -14 5 -16 30 -16 175 l0 169 138 0 c75 0
151 -4 168 -9 l31 -9 -8 42 c-5 22 -8 46 -9 51 0 6 -58 9 -160 7 l-160 -3 0
151 0 152 195 -4 195 -3 0 27 c0 61 15 58 -302 58 l-289 0 15 -22z"/>
<path d="M12577 3860 c-58 -15 -92 -36 -129 -80 -42 -48 -58 -98 -58 -176 0
-86 17 -134 60 -175 64 -61 202 -77 302 -35 21 9 41 16 46 16 14 0 -7 -110
-29 -158 -28 -57 -81 -99 -145 -113 -52 -12 -66 -10 -192 18 -22 5 -23 3 -20
-33 4 -48 28 -62 120 -71 174 -16 296 66 348 234 53 172 27 426 -53 511 -50
54 -165 83 -250 62z m105 -80 c76 -21 124 -119 116 -237 -3 -45 -5 -49 -43
-68 -54 -26 -140 -31 -188 -11 -116 48 -94 279 29 316 39 11 44 11 86 0z"/>
<path d="M10034 3851 c-10 -2 -22 -8 -26 -15 -4 -6 -8 -176 -8 -378 0 -322 2
-369 16 -382 14 -14 44 -16 217 -14 l202 3 0 40 0 40 -162 3 -163 2 0 145 0
145 141 0 140 0 -3 38 -3 37 -137 3 -138 3 0 124 0 125 160 0 160 0 6 27 c14
54 5 57 -197 57 -102 1 -194 -1 -205 -3z"/>
<path d="M11913 3794 c-102 -65 -103 -66 -103 -105 0 -21 3 -39 6 -39 3 0 43
23 89 50 46 28 86 50 89 50 3 0 5 -136 4 -302 l-3 -303 -90 -5 -90 -5 0 -35 0
-35 220 0 220 0 3 38 3 37 -80 0 -81 0 -2 358 -3 357 -40 3 c-34 2 -54 -7
-142 -64z"/>
<path d="M13205 3804 c-49 -31 -98 -63 -107 -72 -18 -15 -24 -62 -11 -75 6 -6
99 40 158 79 l25 16 0 -306 0 -306 -91 0 -90 0 3 -37 3 -38 220 0 220 0 3 38
3 37 -80 0 c-58 0 -81 4 -82 13 0 6 -1 167 -2 357 l-2 345 -40 3 c-34 2 -54
-6 -130 -54z"/>
<path d="M13739 3848 c-18 -7 -19 -18 -19 -198 l0 -190 113 0 c88 0 121 -4
154 -19 116 -53 100 -251 -25 -292 -54 -18 -150 -13 -213 10 -30 12 -57 21
-61 21 -5 0 -8 -18 -8 -41 0 -38 2 -41 43 -59 24 -11 75 -22 113 -26 144 -13
256 36 307 136 25 49 28 63 25 136 -2 67 -7 87 -30 121 -41 62 -101 87 -220
91 l-98 4 0 114 0 114 149 0 c140 0 149 1 154 20 6 22 -2 59 -12 61 -32 5
-357 2 -372 -3z"/>
<path d="M11128 3793 c-15 -4 -18 -16 -18 -79 l0 -74 -45 0 c-50 0 -62 -13
-51 -55 6 -22 12 -25 50 -25 l45 0 3 -208 c3 -178 6 -212 21 -235 31 -47 64
-62 138 -61 79 0 99 13 99 60 l0 34 -44 -6 c-60 -9 -90 1 -104 31 -8 17 -12
89 -12 205 l0 179 78 3 77 3 3 38 3 37 -80 0 -81 0 0 70 c0 66 -1 71 -26 80
-26 10 -28 11 -56 3z"/>
<path d="M10710 3647 c-88 -24 -130 -73 -130 -150 0 -87 35 -128 151 -173 85
-34 119 -63 119 -103 0 -43 -9 -60 -41 -76 -43 -23 -116 -18 -177 10 -59 27
-72 26 -72 -8 0 -38 28 -66 82 -82 142 -42 284 14 304 120 18 97 -24 156 -147
205 -111 45 -145 86 -123 145 18 45 110 58 183 25 59 -27 63 -26 59 18 -3 31
-8 40 -38 54 -50 23 -118 29 -170 15z"/>
<path d="M4930 3400 c0 -7 713 -10 2120 -10 1407 0 2120 3 2120 10 0 7 -713
10 -2120 10 -1407 0 -2120 -3 -2120 -10z"/>
<path d="M14910 3400 c0 -7 793 -10 2360 -10 1567 0 2360 3 2360 10 0 7 -793
10 -2360 10 -1567 0 -2360 -3 -2360 -10z"/>
</g>
</svg>
