<?xml version="1.0" standalone="no"?>
<!DOCTYPE svg PUBLIC "-//W3C//DTD SVG 20010904//EN"
 "http://www.w3.org/TR/2001/REC-SVG-20010904/DTD/svg10.dtd">
<svg version="1.0" xmlns="http://www.w3.org/2000/svg"
 width="100.000000pt" height="76.000000pt" viewBox="0 0 100.000000 76.000000"
 preserveAspectRatio="xMidYMid meet">

<g transform="translate(0.000000,76.000000) scale(0.100000,-0.100000)"
fill="#000000" stroke="none">
<path d="M315 716 l-70 -43 -3 -80 -3 -80 56 -36 55 -37 0 -70 0 -70 70 -35
c38 -19 75 -35 81 -35 7 0 43 19 80 42 l68 42 3 66 3 65 52 30 52 30 0 90 1
90 -73 36 -72 36 -53 -32 -53 -32 -62 33 -62 33 -70 -43z m126 -2 c27 -15 48
-29 45 -31 -5 -5 -106 45 -106 52 0 9 10 5 61 -21z m307 -123 l3 -80 -60 -33
-61 -33 0 -66 0 -67 -60 -35 c-33 -20 -60 -32 -60 -28 0 5 25 23 55 40 l55 31
0 64 0 65 60 37 60 37 0 71 -1 71 -59 29 c-33 16 -60 33 -60 37 0 5 28 -7 63
-26 l62 -34 3 -80z m-331 82 l53 -28 0 -56 c0 -54 -1 -56 -40 -78 -23 -13 -48
-20 -57 -17 -13 6 -14 4 -3 -10 9 -10 -6 -6 -43 12 l-57 28 0 61 c1 60 1 60
43 87 23 14 44 27 47 27 3 1 28 -11 57 -26z m184 13 c-9 -11 -6 -12 13 -9 15
3 39 -3 61 -17 32 -20 35 -25 35 -71 0 -46 -2 -50 -40 -75 -24 -16 -46 -24
-56 -20 -15 6 -15 4 -3 -10 16 -19 14 -19 -53 16 l-48 24 0 61 c0 60 0 60 43
87 47 29 65 35 48 14z m-131 -207 l-25 -20 30 14 c28 14 33 13 73 -10 40 -24
42 -27 42 -74 0 -45 -3 -50 -37 -74 -21 -14 -44 -25 -51 -25 -7 0 -10 -4 -7
-10 10 -16 -1 -12 -55 18 l-50 27 0 60 c0 60 0 60 43 87 50 32 72 36 37 7z"/>
<path d="M340 669 c-17 -13 -18 -17 -5 -10 33 17 51 31 40 31 -5 0 -21 -10
-35 -21z"/>
<path d="M293 643 c-9 -3 -12 -24 -11 -61 l2 -57 3 50 c3 27 9 55 15 62 11 14
10 14 -9 6z"/>
<path d="M548 654 c-26 -14 -28 -19 -26 -72 l2 -57 3 58 c2 31 7 57 12 57 4 0
16 7 27 15 24 18 17 18 -18 -1z"/>
<path d="M567 509 c7 -7 15 -10 18 -7 3 3 -2 9 -12 12 -14 6 -15 5 -6 -5z"/>
<path d="M418 449 c-14 -8 -18 -22 -16 -67 l2 -57 3 54 c3 36 10 59 21 68 20
15 14 16 -10 2z"/>
<path d="M420 326 c0 -3 9 -10 20 -16 11 -6 20 -8 20 -6 0 3 -9 10 -20 16 -11
6 -20 8 -20 6z"/>
<path d="M10 150 c0 -22 5 -40 10 -40 6 0 10 10 10 22 l0 21 25 -23 c28 -26
34 -17 9 12 -14 15 -15 20 -3 35 11 15 10 15 -9 -1 -19 -17 -22 -17 -22 -3 0
10 -4 17 -10 17 -5 0 -10 -18 -10 -40z"/>
<path d="M542 149 c10 -22 22 -39 24 -36 6 6 -28 77 -37 77 -4 0 2 -18 13 -41z"/>
<path d="M251 155 c1 -19 18 -51 18 -35 0 8 -4 22 -9 30 -5 8 -9 11 -9 5z"/>
<path d="M314 149 c-4 -8 -3 -9 4 -5 7 4 12 1 12 -8 0 -8 4 -17 9 -20 5 -4 7
3 4 14 -7 26 -19 34 -29 19z"/>
<path d="M370 153 c0 -5 13 -17 28 -27 l27 -19 -24 26 c-26 28 -31 32 -31 20z"/>
<path d="M602 135 c0 -16 2 -22 5 -12 2 9 2 23 0 30 -3 6 -5 -1 -5 -18z"/>
<path d="M662 135 c0 -16 2 -22 5 -12 2 9 2 23 0 30 -3 6 -5 -1 -5 -18z"/>
<path d="M722 135 c0 -16 2 -22 5 -12 2 9 2 23 0 30 -3 6 -5 -1 -5 -18z"/>
<path d="M839 137 c26 -28 31 -32 31 -19 0 4 -13 16 -28 26 l-27 19 24 -26z"/>
<path d="M962 135 c0 -16 2 -22 5 -12 2 9 2 23 0 30 -3 6 -5 -1 -5 -18z"/>
<path d="M890 136 c0 -8 4 -17 9 -20 5 -4 7 3 4 14 -6 23 -13 26 -13 6z"/>
<path d="M190 136 c0 -2 7 -9 15 -16 9 -7 15 -8 15 -2 0 5 -7 12 -15 16 -8 3
-15 4 -15 2z"/>
<path d="M780 131 c0 -6 4 -13 10 -16 6 -3 7 1 4 9 -7 18 -14 21 -14 7z"/>
<path d="M422 30 c0 -14 2 -19 5 -12 2 6 2 18 0 25 -3 6 -5 1 -5 -13z"/>
</g>
</svg>
